<?xml version="1.0" encoding="UTF-8" standalone="no"?>
<!-- Created with Inkscape (http://www.inkscape.org/) -->

<svg
   xmlns:dc="http://purl.org/dc/elements/1.1/"
   xmlns:cc="http://creativecommons.org/ns#"
   xmlns:rdf="http://www.w3.org/1999/02/22-rdf-syntax-ns#"
   xmlns:svg="http://www.w3.org/2000/svg"
   xmlns="http://www.w3.org/2000/svg"
   xmlns:sodipodi="http://sodipodi.sourceforge.net/DTD/sodipodi-0.dtd"
   xmlns:inkscape="http://www.inkscape.org/namespaces/inkscape"
   id="svg4228"
   version="1.1"
   inkscape:version="0.91 r13725"
   width="375.9375"
   height="250.3125"
   viewBox="0 0 375.9375 250.3125"
   sodipodi:docname="Blucher.svg">
  <metadata
     id="metadata4234">
    <rdf:RDF>
      <cc:Work
         rdf:about="">
        <dc:format>image/svg+xml</dc:format>
        <dc:type
           rdf:resource="http://purl.org/dc/dcmitype/StillImage" />
        <dc:title></dc:title>
      </cc:Work>
    </rdf:RDF>
  </metadata>
  <defs
     id="defs4232" />
  <sodipodi:namedview
     pagecolor="#ffffff"
     bordercolor="#666666"
     borderopacity="1"
     objecttolerance="10"
     gridtolerance="10"
     guidetolerance="10"
     inkscape:pageopacity="0"
     inkscape:pageshadow="2"
     inkscape:window-width="1600"
     inkscape:window-height="837"
     id="namedview4230"
     showgrid="false"
     inkscape:zoom="2.6766542"
     inkscape:cx="187.96875"
     inkscape:cy="125.15625"
     inkscape:window-x="-8"
     inkscape:window-y="-8"
     inkscape:window-maximized="1"
     inkscape:current-layer="svg4228" />
  <path
     style="fill:#000000"
     d="M 49.333106,248.85488 C 24.242996,246.24363 8.5032848,240.81373 5.920169,233.87827 0.93293411,220.48793 -0.01895859,215.37187 1.5646127,210.46875 c 1.49048,-4.61488 6.5681537,-11.08025 8.0047461,-10.19238 0.8361802,0.51679 1.7491552,-1.60714 3.9209992,-9.12171 4.347879,-15.04366 25.96552,-36.4157 44.400267,-43.89583 1.675781,-0.67996 3.046875,-1.57348 3.046875,-1.98558 0,-0.4121 1.265625,-1.02725 2.8125,-1.367 1.546875,-0.33975 2.8125,-1.00609 2.8125,-1.48074 0,-0.47465 0.418334,-0.86301 0.929632,-0.86301 1.234499,0 21.761381,-11.78805 32.280452,-18.53783 6.293736,-4.03849 8.616216,-6.09126 9.374996,-8.28626 1.72353,-4.98577 5.51884,-9.68551 9.91492,-12.27764 2.32031,-1.36816 6.75,-4.446036 9.84375,-6.839726 3.09375,-2.393687 8.15625,-6.279296 11.25,-8.634686 6.79747,-5.175169 26.32043,-24.218391 33.35122,-32.531671 2.79746,-3.307734 5.51422,-6.471796 6.03726,-7.03125 0.52304,-0.559453 2.36152,-2.822855 4.0855,-5.029783 5.52264,-7.069693 16.43023,-10.274122 35.15968,-10.329207 21.88884,-0.06438 44.47891,-5.095641 62.70472,-13.965606 3.73264,-1.816566 6.95039,-3.220913 7.15056,-3.120772 0.20015,0.100142 0.62203,-0.216967 0.9375,-0.704685 0.31546,-0.487718 2.05012,-1.63539 3.85481,-2.550382 1.80469,-0.914992 5.60156,-3.2618754 8.4375,-5.2152967 9.07893,-6.25365133 22.38416,-8.1037534 30.20843,-4.2005001 1.59067,0.7935371 3.2661,1.4427948 3.72315,1.4427948 2.11821,0 13.59579,13.635373 17.40649,20.678923 6.9549,12.855166 9.85439,25.977297 9.87582,44.694814 0.0139,12.138188 0.17142,13.39204 1.74508,13.8915 5.76717,1.830428 10.99548,23.260613 10.23567,41.954653 -0.19825,4.87748 -9.50099,15.71215 -20.68613,24.09261 -1.72046,1.28906 -5.04227,3.91509 -7.38177,5.83563 -3.66307,3.00706 -18.35237,11.03937 -20.18855,11.03937 -0.34604,0 -1.73236,0.72284 -3.08071,1.60631 -1.34835,0.88347 -2.91554,1.69842 -3.48264,1.81098 -0.56709,0.11257 -3.34682,1.07773 -6.17715,2.1448 -4.59574,1.73265 -5.94659,1.83976 -12.63166,1.00153 -13.02013,-1.6326 -12.30816,-1.86118 -23.5983,7.57633 -5.60256,4.68322 -15.91524,14.28088 -22.91706,21.32812 -7.00182,7.04725 -13.44192,13.36323 -14.31134,14.03552 -5.84713,4.52139 -21.524,14.39311 -23.58308,14.85024 -0.51562,0.11448 -3.89062,1.04831 -7.5,2.07518 -21.19417,6.02975 -41.41619,10.41751 -57.1875,12.40852 -34.521,4.35799 -38.55961,4.67779 -63.75,5.04808 -18.729734,0.27531 -29.977372,-0.002 -39.260644,-0.96823 z m 48.276741,-25.14494 c 13.117153,-0.38583 15.916743,-1.69726 11.481393,-5.37827 -0.84356,-0.70009 -2.59465,-2.96659 -3.89131,-5.03666 -3.57649,-5.70973 -16.577627,-17.77616 -25.51243,-23.67823 -4.382813,-2.89515 -9.052176,-5.98827 -10.376363,-6.8736 -6.864242,-4.5893 -19.755388,-9.67984 -30.604535,-12.08531 l -7.699648,-1.70716 -2.273606,2.94652 c -1.250483,1.62059 -3.395314,4.21215 -4.766292,5.75902 -10.901586,12.30027 -12.00978,33.07241 -2.014921,37.76799 4.898202,2.30117 6.692937,2.98497 8.985365,3.42345 1.289063,0.24657 4.664063,1.06407 7.5,1.81667 8.921988,2.36774 29.58758,4.17593 41.71875,3.65029 3.609375,-0.15639 11.463493,-0.42851 17.453597,-0.60471 z m -59.472529,-9.93087 c -2.751136,-0.53219 -11.16379,-7.06032 -9.098475,-7.06032 0.810344,0 -1.447523,-5.03408 -3.419381,-7.62375 -2.372211,-3.11547 -0.830844,-5.57922 1.633089,-2.61037 0.626801,0.75525 1.358086,1.15473 1.62508,0.88774 0.266992,-0.267 1.074547,0.35562 1.794565,1.38359 0.720018,1.02797 1.866358,1.86904 2.547422,1.86904 0.681064,0 1.717903,0.57788 2.304087,1.2842 0.586184,0.70631 3.801903,2.63117 7.146042,4.27749 6.236032,3.06999 8.254802,5.53126 3.502128,4.26977 -1.417969,-0.37637 -4.011355,-0.81389 -5.763082,-0.97227 l -3.184956,-0.28797 2.848291,1.73216 c 5.542431,3.37055 4.986542,4.18958 -1.93481,2.85069 z m 89.980272,7.39646 c 2.18161,0.0424 2.43581,-1.93463 0.49792,-3.87252 -0.86235,-0.86235 -1.11551,-0.86019 -1.11551,0.009 0,2.00749 -1.35703,1.18446 -3.68671,-2.23597 -1.58216,-2.32292 -1.95217,-3.55104 -1.20838,-4.01073 0.75804,-0.4685 0.53535,-1.47683 -0.76024,-3.44232 -1.31521,-1.99524 -1.83406,-2.31672 -1.83849,-1.1391 -0.008,2.15605 -1.19531,2.07738 -3.27151,-0.21679 -1.38383,-1.52911 -1.46994,-2.11167 -0.48716,-3.29583 1.01227,-1.21972 0.36698,-2.25579 -4.24416,-6.81446 -3.0779,-3.04287 -4.75909,-4.26941 -3.87377,-2.82615 1.76836,2.8828 0.0201,2.88008 -3.34185,-0.006 -1.73082,-1.48542 -1.33434,-3.41465 0.51143,-2.48856 0.60889,0.3055 0.17581,-0.26806 -0.96242,-1.27458 -1.13823,-1.00653 -1.77104,-2.161 -1.40625,-2.56548 0.3648,-0.40449 0.12904,-0.42772 -0.52391,-0.0516 -0.65294,0.37611 -0.94445,1.07656 -0.64779,1.55656 0.97955,1.58494 -1.19917,0.90737 -3.451809,-1.07351 l -2.213231,-1.94622 2.109375,0.4522 c 3.389185,0.72658 2.461915,-0.81352 -2.8125,-4.67123 -12.192175,-8.91737 -30.824114,-18.58403 -27.046553,-14.03235 1.774601,2.13827 0.838222,2.75548 -2.129173,1.40345 -2.819314,-1.28457 -3.242408,-2.68362 -0.824274,-2.72563 1.991272,-0.0346 0.281917,-1.1733 -3.508273,-2.33707 -2.134959,-0.65554 -2.220393,-0.5776 -0.99091,0.90383 1.229126,1.481 1.106874,1.59405 -1.413602,1.3071 -2.029387,-0.23065 -2.75909,-0.8096 -2.75909,-2.18872 0,-1.23668 -0.725853,-1.978 -2.132103,-2.17756 -1.382308,-0.19615 -2.041687,0.13354 -1.875,0.9375 0.141407,0.68203 -0.270241,1.19787 -0.914772,1.14631 -0.644531,-0.0516 -1.849823,-0.15703 -2.678427,-0.23438 -0.888856,-0.083 -1.297508,-0.68538 -0.996696,-1.46928 0.280421,-0.73077 -0.112288,-1.56741 -0.872686,-1.8592 -0.760398,-0.29179 -1.622646,0.0952 -1.916106,0.85992 -0.30804,0.80273 -1.726158,1.39044 -3.355104,1.39044 -2.359981,0 -2.74133,0.30672 -2.331216,1.875 0.397149,1.5187 0.01709,1.8863 -2.000034,1.93443 -2.804272,0.0669 -1.28069,0.9195 3.886914,2.1751 2.434266,0.59147 2.550821,0.49552 1.586604,-1.30614 -0.95175,-1.77837 -0.815771,-1.91442 1.59148,-1.59244 1.515099,0.20266 2.760516,1.01366 2.934629,1.91102 0.210905,1.08697 -0.143886,1.38767 -1.171875,0.99319 C 45.663461,167.86649 45,167.97568 45,168.4203 c 0,1.80388 6.958456,3.15112 8.155211,1.57894 0.765105,-1.00512 1.887566,-1.2849 3.515625,-0.87628 3.454011,0.86689 3.066927,2.80897 -0.420836,2.11142 -1.586539,-0.31731 -2.8125,-0.16407 -2.8125,0.35156 0,0.50273 0.527344,0.91508 1.171875,0.91634 4.508424,0.008 24.383508,12.20845 35.3573,21.70298 6.899659,5.96959 9.137134,8.1698 16.300595,16.02912 1.7624,1.93359 3.67481,3.51562 4.2498,3.51562 0.57498,0 0.9558,0.31641 0.84626,0.70313 -0.63742,2.25019 2.21245,4.91384 4.14869,3.87759 2.03623,-1.08976 5.08237,1.19908 3.97671,2.98806 -0.24815,0.40154 1.13646,0.52472 3.07692,0.27375 1.94045,-0.25097 4.43882,-0.43862 5.55194,-0.417 z m -16.14536,-6.39255 c 0.27892,-0.45129 -0.12105,-1.34186 -0.8888,-1.97905 -1.52229,-1.26337 -1.89732,-3.74143 -0.56625,-3.74143 0.74898,0 3.85782,4.04778 3.85782,5.02297 0,0.22078 -0.65472,0.65266 -1.45494,0.95974 -0.80022,0.30707 -1.22674,0.18907 -0.94783,-0.26223 z m -7.85856,-9.88644 c -3.12733,-3.22658 -3.40845,-5.04095 -0.61498,-3.96899 1.77033,0.67933 4.59641,4.94341 4.15466,6.26866 -0.18449,0.55345 -1.77734,-0.4814 -3.53968,-2.29967 z m 8.06084,-4.11324 c -0.85448,-0.94419 -1.27051,-1.9998 -0.92451,-2.3458 0.69586,-0.69587 4.0625,2.01427 4.0625,3.2703 0,1.32868 -1.4984,0.88722 -3.13799,-0.9245 z m -17.505816,-5.33721 c -1.931891,-2.32778 -0.10936,-2.86593 2.128181,-0.62838 1.653403,1.65341 1.762856,2.05729 0.557503,2.05729 -0.824887,0 -2.033447,-0.643 -2.685684,-1.42891 z m -9.06954,-7.39759 c -1.446722,-1.24519 -2.410242,-2.48489 -2.141157,-2.75487 C 84.31244,184.43634 90,187.67892 90,189.02334 c 0,1.89635 -1.434062,1.57869 -4.400846,-0.97484 z m 5.207831,-6.0928 c -1.217279,-0.98687 -1.909995,-2.0987 -1.539368,-2.47074 0.806574,-0.80966 5.419883,2.04108 5.419883,3.34915 0,1.41854 -1.452963,1.08964 -3.880515,-0.87841 z m -15.10386,-0.61692 c -2.689656,-1.45916 -3.443348,-3.21378 -1.380474,-3.21378 1.583495,0 5.364849,2.68061 5.364849,3.80316 0,1.2015 -0.939416,1.06253 -3.984375,-0.58938 z m 5.427787,-5.41443 c -1.173498,-0.85808 -1.38749,-1.47325 -0.667309,-1.91835 1.228515,-0.75926 4.848897,0.94083 4.848897,2.27698 0,1.29967 -2.168021,1.11373 -4.181588,-0.35863 z m -16.697504,-0.69798 c -2.480432,-1.44405 -1.01049,-2.8352 1.693821,-1.60304 2.441384,1.11237 3.113441,2.64621 1.138396,2.59816 -0.644531,-0.0157 -1.91903,-0.46348 -2.832218,-0.99512 z M 73.75,171.875 C 72.712476,170.83748 73.043404,170 74.490907,170 c 0.751248,0 1.581758,0.5625 1.845576,1.25 0.490945,1.27938 -1.460541,1.75094 -2.586483,0.625 z m 72.5,47.01696 c 11.02824,-1.01053 33.98099,-4.88527 38.56869,-6.51094 0.70128,-0.2485 2.35351,-0.6322 3.67162,-0.85266 16.86817,-2.82136 31.91612,-10.35398 46.38371,-23.21847 3.11039,-2.76576 7.68645,-6.71614 10.16902,-8.77864 2.48256,-2.0625 5.00019,-4.18988 5.59473,-4.7275 0.59454,-0.53763 5.4052,-4.47265 10.69035,-8.74448 5.28516,-4.27184 9.60938,-7.9662 9.60938,-8.20968 0,-8.04961 -15.0638,-12.28983 -30,-8.44454 -12.92228,3.32682 -38.80126,15.49632 -41.27938,19.41149 -3.2749,5.17397 -14.31053,6.14724 -19.83752,1.74953 -1.90336,-1.51447 -3.85807,-2.75357 -4.34378,-2.75357 -0.48572,0 -1.10323,-0.84162 -1.37222,-1.87027 -0.269,-1.02865 -1.18082,-2.1357 -2.02627,-2.46014 -0.84545,-0.32443 -3.20582,-2.29213 -5.24526,-4.37267 -2.03943,-2.08054 -3.70807,-3.58131 -3.70807,-3.33504 0,0.24627 -3.08349,-2.53425 -6.85222,-6.17893 -3.76872,-3.64468 -6.75775,-6.76658 -6.64229,-6.93754 0.11547,-0.17096 -0.38697,-1.73944 -1.11653,-3.48551 -2.20807,-5.28467 -1.68935,-9.17837 1.83845,-13.80003 4.35498,-5.70535 -0.62116,-10.97856 -11.84107,-12.54791 -1.99265,-0.27872 -4.33616,-0.6444 -5.20779,-0.81263 -0.87164,-0.16823 -2.53402,-0.33815 -3.69418,-0.3776 -3.72155,-0.12656 -2.07218,-7.20882 2.21294,-9.50215 1.23211,-0.65941 2.24019,-1.50146 2.24019,-1.87122 0,-0.369766 2.51007,-2.509994 5.57793,-4.756057 3.06786,-2.24606 6.00491,-5.020852 6.52677,-6.166205 0.52185,-1.145352 2.54694,-3.101632 4.50019,-4.347289 4.14517,-2.643525 7.30672,-6.116918 8.23773,-9.050247 0.88968,-2.803138 -0.47556,-1.963188 -8.57115,5.273305 -11.77272,10.523405 -13.8619,12.187949 -24.34234,19.394623 -11.23159,7.72319 -11.9698,8.39229 -13.01594,11.79723 l -0.69129,2.24997 3.15467,-2.2048 c 1.73508,-1.21264 3.36562,-2.47837 3.62343,-2.81275 1.68016,-2.17909 4.79122,-2.79386 6.33352,-1.25155 1.20212,1.20212 1.25859,1.48737 0.22633,1.14328 -0.75648,-0.25216 -4.33488,1.60337 -7.95201,4.12341 -16.10646,11.2213 -45.968551,29.78372 -47.914243,29.78372 -0.370075,0 -1.97831,0.96351 -3.573855,2.14112 -1.595546,1.17762 -4.166617,2.68072 -5.713492,3.34024 -12.045277,5.13551 -14.326061,8.12007 -7.265625,9.50754 2.964844,0.58263 6.023437,1.27258 6.796875,1.53322 0.773437,0.26066 1.40625,0.4206 1.40625,0.35543 0,-2.19475 30.657278,14.88585 38.536566,21.47052 1.601354,1.33825 3.927014,3.15536 5.168114,4.03803 3.19833,2.27463 9.06764,8.42272 16.47519,17.25772 8.99275,10.72569 9.66388,11.56729 9.66388,12.11863 0,2.53622 3.38987,5.21621 6.01627,4.75637 1.58949,-0.27829 5.63217,-0.75725 8.98373,-1.06436 z m 6.57339,-12.16009 c -1.72188,-2.07475 -1.19872,-2.31555 8.08982,-3.72351 4.56805,-0.69243 11.89148,-2.1851 16.27429,-3.31704 4.38281,-1.13196 9.44531,-2.42999 11.25,-2.8845 1.80469,-0.45453 6.65625,-2.13473 10.78125,-3.73377 9.74353,-3.77704 10.78175,-4.07605 10.77872,-3.10427 -0.003,0.88098 -4.68355,3.82179 -11.0131,6.91919 -2.1914,1.07237 -3.98437,2.30617 -3.98437,2.74177 0,0.4356 -1.05469,1.0567 -2.34375,1.38023 -1.28906,0.32355 -2.34375,1.01708 -2.34375,1.54121 0,2.3034 -8.80002,4.85097 -15.9375,4.61383 -3.86719,-0.12849 -8.08594,-0.26673 -9.375,-0.30722 -1.28906,-0.0405 -4.28264,0.24416 -6.65239,0.63257 -3.38494,0.5548 -4.56924,0.39219 -5.52422,-0.75849 z m 36.49216,-36.94661 c 0.45552,-0.73794 1.4783,-1.05115 2.34565,-0.71832 1.89108,0.72568 5.18129,-1.18582 4.60884,-2.67758 -0.60597,-1.57914 2.0479,-3.46001 5.43915,-3.85485 3.27803,-0.38168 5.47831,-1.84472 5.47831,-3.64275 0,-1.38518 2.57797,-2.58486 3.85652,-1.79468 1.40089,0.8658 6.30643,-1.70845 5.79507,-3.04103 -0.64033,-1.66869 4.12387,-3.78059 5.47671,-2.42775 1.41987,1.41987 6.48663,-0.4008 5.83575,-2.09699 -0.26646,-0.69438 0.36426,-1.71674 1.40161,-2.27191 2.6007,-1.39185 4.18249,-1.26361 3.58604,0.29074 -0.35454,0.92389 0.0443,1.15811 1.37787,0.80935 1.03223,-0.26994 2.25585,-1.48782 2.71915,-2.70639 0.92332,-2.4285 1.58357,-2.65393 3.70128,-1.26375 1.25,0.82058 1.25,1.03714 0,1.94908 -1.17443,0.85681 -1.12314,0.93409 0.31105,0.46875 0.94452,-0.30645 2.30237,-0.55718 3.01745,-0.55718 0.73349,0 1.07913,-0.57599 0.79302,-1.32156 -0.78023,-2.03327 3.4339,-3.02811 4.81665,-1.13708 1.36352,1.86472 3.24933,1.98962 3.24933,0.21519 0,-0.71827 0.63281,-1.54878 1.40625,-1.84558 0.77344,-0.29679 1.40625,-0.1802 1.40625,0.25911 0,0.92014 3.55011,2.20637 5.625,2.03797 0.77344,-0.0628 2.58608,0.98287 4.02811,2.32365 1.96268,1.82488 2.92865,2.18318 3.84207,1.42511 1.56983,-1.30285 4.0278,1.41963 3.80586,4.21541 -0.12499,1.57448 0.27334,1.87158 2.05319,1.53134 2.75014,-0.52573 2.74383,-0.73068 -0.13922,-4.51055 -1.29113,-1.69275 -1.95772,-3.31863 -1.48133,-3.61305 0.87477,-0.54064 4.76632,3.73274 4.76632,5.23397 0,1.36096 1.30763,0.91528 3.80929,-1.29831 1.31114,-1.16015 3.06932,-2.53125 3.90708,-3.04687 0.83776,-0.51563 5.2923,-3.55749 9.89896,-6.75971 4.60667,-3.20222 11.07074,-7.2325 14.36459,-8.95618 11.14252,-5.83092 16.4061,-9.11797 22.02689,-13.75559 1.60217,-1.32194 3.92249,-3.20665 5.15625,-4.18825 20.02976,-15.936111 23.37096,-22.352951 23.47822,-45.09027 0.10936,-23.185601 -8.9021,-47.803571 -20.6865,-56.512441 L 337.5,9.3188674 337.38036,14.268809 c -0.19156,7.924766 -0.40834,8.862699 -3.47384,15.029631 -15.7203,31.624909 -76.71859,49.152679 -104.78136,30.108772 -6.94901,-4.715726 -17.0182,-3.334569 -11.15641,1.530288 0.77344,0.641896 1.40625,1.710738 1.40625,2.375204 0,0.664466 1.28583,2.290071 2.85739,3.612455 l 2.85738,2.404334 -2.11116,2.85551 c -1.8649,2.522416 -9.19831,7.853829 -7.88901,5.735339 0.28312,-0.45809 -0.11342,-1.354225 -0.88117,-1.991409 -0.76776,-0.637184 -1.39593,-2.183931 -1.39593,-3.437213 0,-1.253283 -1.05469,-3.830808 -2.34375,-5.727834 -1.28906,-1.897026 -2.34375,-2.883597 -2.34375,-2.192379 0,0.872407 -0.71678,1.076857 -2.34375,0.668514 -1.35155,-0.339215 -2.34375,-0.183799 -2.34375,0.367118 0,0.525449 0.4484,0.955361 0.99643,0.955361 0.54804,0 0.86728,0.762293 0.70945,1.693986 -0.15784,0.931691 1.56919,4.54296 3.83786,8.025041 l 4.12485,6.331056 -1.58691,3.327777 c -1.30544,2.73754 -1.9908,3.250566 -3.86408,2.892465 -1.25246,-0.239421 -2.42227,-5.8e-5 -2.5996,0.531918 -0.57937,1.738111 -2.3958,-0.253707 -3.49359,-3.830925 -1.9926,-6.492971 -3.02532,-8.637579 -3.89928,-8.097444 -0.47837,0.29565 -1.43483,0.06858 -2.12546,-0.504592 -0.94699,-0.785926 -1.38956,-0.69329 -1.8002,0.376794 -0.29947,0.780412 -0.24327,1.374034 0.1249,1.319158 1.9318,-0.28794 2.21264,0.291984 0.86339,1.782891 -1.39237,1.538545 -1.26764,2.003752 1.69655,6.328125 4.23746,6.181883 4.09851,10.1836 -0.43788,12.611406 -2.77309,1.484114 -4.37746,0.303703 -7.0716,-5.202918 -1.88344,-3.849618 -2.98336,-5.08125 -4.52816,-5.070382 -1.54564,0.01087 -1.72313,0.21526 -0.73193,0.842883 0.71966,0.455689 1.0493,1.503918 0.73254,2.329394 -0.64286,1.675289 -2.50978,2.053195 -2.50978,0.508039 0,-0.546056 -0.37998,-0.757987 -0.84441,-0.470958 -1.42668,0.881743 -0.34821,6.909808 1.76791,9.881636 4.53094,6.3631 2.26757,14.08215 -4.12915,14.08215 -2.27067,0 -4.88788,-2.9687 -3.95209,-4.48284 0.7584,-1.22712 -1.68155,-3.55526 -3.87814,-3.70044 -1.19054,-0.0787 -1.87738,0.26744 -1.55756,0.78491 1.04886,1.69709 -0.40729,3.98109 -1.80078,2.82459 -2.31524,-1.92147 -2.48841,0.16805 -0.25645,3.09429 3.95596,5.18653 4.8429,13.32242 1.81899,16.68556 -3.76278,4.18491 -8.03745,3.77141 -9.05478,-0.87589 -0.31442,-1.43629 -1.37313,-3.62952 -2.35271,-4.87385 l -1.78104,-2.26243 -1.09254,2.04143 c -0.6009,1.12279 -0.75807,1.98546 -0.34927,1.91703 1.8196,-0.30455 2.14622,0.22706 1.21202,1.97264 -1.17206,2.19002 -3.27526,2.55817 -2.45875,0.4304 0.42981,-1.12011 0.20493,-1.24907 -1.00114,-0.57412 -1.99208,1.11483 -2.43003,3.89372 -0.61363,3.89372 0.95843,0 1.29411,0.79476 1.08891,2.57812 -0.17567,1.52681 0.36372,3.23849 1.32272,4.19749 0.98908,0.98908 1.37687,2.2662 0.99635,3.28125 -0.52726,1.40646 -0.39902,1.48 0.83437,0.47846 1.75848,-1.42793 4.13305,0.73678 3.27138,2.98225 -0.36091,0.94049 0.018,1.25042 1.24091,1.01491 1.98087,-0.38148 3.3865,0.96822 3.90239,3.74708 0.20915,1.12663 1.09015,1.87399 2.21026,1.875 1.23691,9.4e-4 1.86248,0.63146 1.86248,1.87669 0,1.34854 0.72388,1.95829 2.57813,2.17164 1.41796,0.16316 2.63085,0.6905 2.69531,1.17188 0.0644,0.48138 0.16992,1.26195 0.23437,1.73461 0.19526,1.43187 1.52344,2.35346 1.52344,1.05708 0,-2.00517 2.54081,0.62344 3.22058,3.33187 0.4032,1.60641 1.13427,2.26706 2.29171,2.07098 2.14842,-0.36398 4.83786,1.80421 4.22359,3.40499 -0.63854,1.66399 3.2215,1.37993 4.26717,-0.31404 z m -0.64368,-3.58382 c -0.64453,-0.2311 -1.17187,-0.75773 -1.17187,-1.17028 0,-1.04003 4.62353,-1.83061 5.20489,-0.88997 0.61767,0.99942 -2.52056,2.60257 -4.03302,2.06025 z M 182.5,162.5 c -1.05114,-1.05114 -0.6974,-2.1875 0.68095,-2.1875 0.71827,0 1.54877,0.63281 1.84558,1.40625 0.5409,1.40958 -1.32212,1.98566 -2.52653,0.78125 z m 13.4375,-1.1497 c 0,-0.86307 2.21932,-1.9753 3.94147,-1.9753 0.59072,0 0.51519,0.55478 -0.19147,1.40625 -1.27365,1.53466 -3.75,1.91044 -3.75,0.56905 z m -19.2573,-4.85017 c -0.33987,-0.54993 -0.39284,-1.22499 -0.1177,-1.50013 0.67155,-0.67154 2.5,0.51171 2.5,1.61783 0,1.1981 -1.61851,1.11813 -2.3823,-0.1177 z m 26.7573,0.16267 c 0,-0.86307 2.21932,-1.9753 3.94147,-1.9753 0.59072,0 0.51519,0.55478 -0.19147,1.40625 -1.27365,1.53466 -3.75,1.91044 -3.75,0.56905 z m -31.36621,-4.72302 c -0.64039,-1.03615 0.8385,-2.15498 1.7042,-1.2893 0.89136,0.89137 0.72524,2.16202 -0.28266,2.16202 -0.48519,0 -1.12489,-0.39273 -1.42154,-0.87272 z m 40.30633,-0.01 c -0.31016,-0.50185 0.69454,-1.56324 2.23267,-2.35863 3.16438,-1.63637 3.82721,-1.75948 3.82721,-0.71082 0,1.28338 -5.45581,4.04685 -6.05988,3.06945 z m -45.06297,-4.78939 c -0.89082,-1.44139 0.32939,-2.37138 1.53266,-1.16811 0.6733,0.67329 0.68947,1.19768 0.0491,1.59341 -0.52493,0.32442 -1.23674,0.13303 -1.58182,-0.4253 z m 55.81035,-2.2967 c 0.6419,-0.77344 1.7999,-1.40625 2.57333,-1.40625 1.14371,0 1.18836,0.26255 0.23917,1.40625 -0.6419,0.77344 -1.7999,1.40625 -2.57333,1.40625 -1.14371,0 -1.18836,-0.26255 -0.23917,-1.40625 z m 44.29687,-1.43546 c -1.76732,-0.71038 -3.03466,-2.78329 -1.70165,-2.78329 1.47986,0 5.21728,1.99812 5.21728,2.7893 0,1.13604 -0.67723,1.13488 -3.51563,-0.006 z M 231.5625,142.1663 c 0,-0.71881 1.333,-1.57353 2.96224,-1.89937 5.11188,-1.02238 4.7557,1.38721 -0.38412,2.59864 -1.87017,0.44079 -2.57812,0.24877 -2.57812,-0.69927 z m 25.06223,-1.33725 c -1.42671,-0.18241 -2.35103,-0.72482 -2.05405,-1.20536 0.70683,-1.14366 6.05432,-1.13618 6.05432,0.008 0,1.26334 -1.04199,1.5751 -4.00027,1.19688 z M 159.375,139.14063 c 0,-0.81641 0.50097,-1.31739 1.11328,-1.11328 1.73833,0.57944 2.02665,2.59765 0.37109,2.59765 -0.8164,0 -1.48437,-0.66797 -1.48437,-1.48437 z m 83.90625,0.54687 c 0.31868,-0.51563 1.84503,-0.9375 3.3919,-0.9375 1.63628,0 2.57019,0.39207 2.2331,0.9375 -0.31868,0.51562 -1.84503,0.9375 -3.3919,0.9375 -1.63628,0 -2.57019,-0.39207 -2.2331,-0.9375 z m -88.16355,-4.74987 c -0.33987,-0.54993 -0.39284,-1.22499 -0.1177,-1.50013 0.67155,-0.67154 2.5,0.51171 2.5,1.61783 0,1.1981 -1.61851,1.11813 -2.3823,-0.1177 z M 336.1145,96.328125 c 0.38949,-1.160156 0.78573,-4.007813 0.88052,-6.328125 0.0948,-2.320313 0.47589,-6.117188 0.84687,-8.4375 0.5151,-3.221679 0.43261,-3.831 -0.34902,-2.578125 -1.99156,3.192278 -2.58745,1.539662 -2.63562,-7.309594 -0.0462,-8.495606 0.0453,-8.920376 1.8024,-8.362696 1.60279,0.508704 1.77012,0.26481 1.24737,-1.81801 -0.33206,-1.323042 -0.5679,-3.36061 -0.52409,-4.527928 0.0438,-1.167319 0.12981,-3.705322 0.1911,-5.640007 0.23059,-7.278599 3.39854,-4.936726 6.47726,4.788237 3.47338,10.971623 2.12337,23.675998 -3.86203,36.344137 -2.68792,5.68898 -5.6206,8.474006 -4.07476,3.869611 z M 165.38542,106.80307 c 4.50508,-5.35398 -0.24035,-9.724532 -13.67258,-12.592467 l -5.31841,-1.135541 -3.58784,3.131985 c -1.97331,1.72259 -3.90425,3.140072 -4.29097,3.149972 -2.65102,0.06778 0.26745,1.877421 5.16659,3.203551 3.22834,0.87387 7.97444,2.82772 10.54687,4.34191 5.95676,3.50624 8.13874,3.4868 11.15634,-0.0994 z m 14.86366,-19.846563 c 1.77413,-4.632823 -18.62955,-9.022604 -22.55866,-4.853422 l -2.15334,2.284897 2.15334,0.811569 c 1.18433,0.446363 3.50088,1.104606 5.1479,1.462761 1.64701,0.358155 4.86572,2.079917 7.15268,3.82614 2.28695,1.746221 4.41987,2.913183 4.7398,2.593248 0.31993,-0.319935 0.5817,-0.03064 0.5817,0.642875 0,1.304916 3.8845,-4.020758 4.93658,-6.768068 z m 10.11633,-12.190882 c 2.44032,-2.925229 2.32982,-3.218492 -2.05572,-5.45583 -5.03581,-2.569078 -13.33012,-3.11082 -17.15748,-1.120638 l -2.87096,1.492871 5.1745,1.039998 c 2.84598,0.571999 7.27567,2.168452 9.84375,3.547672 5.70399,3.063389 4.96719,3.011676 7.06591,0.495927 z M 161.25,72.1875 c 0,-0.515625 0.53879,-0.9375 1.19732,-0.9375 1.99385,0 7.35999,-5.378418 5.91816,-5.931702 -0.68686,-0.263576 -3.07855,1.385106 -5.31486,3.663738 -2.2363,2.27863 -3.5563,4.142964 -2.93332,4.142964 0.62299,0 1.1327,-0.421875 1.1327,-0.9375 z m 39.45349,-9.938327 c 3.48417,-4.198162 -5.50429,-9.860962 -14.10578,-8.886755 -4.0056,0.453675 -5.83572,4.762582 -2.02281,4.762582 0.90845,0 4.15308,1.240968 7.21029,2.757706 6.53078,3.240046 7.26944,3.353223 8.9183,1.366467 z m -20.35452,-6.702298 c 0.73405,-1.417969 2.63658,-4.054688 4.22786,-5.859375 1.59127,-1.804688 2.89996,-3.569227 2.9082,-3.921199 0.0743,-3.178391 12.58006,0.202616 20.31604,5.492596 11.63033,7.952979 14.6289,-2.513526 3.11055,-10.857368 -6.42745,-4.656019 -17.08873,-4.323527 -22.82569,0.711862 -3.76175,3.301724 -12.85761,15.179459 -12.30679,16.0707 1.07217,1.734801 3.22316,0.964172 4.56983,-1.637216 z"
     id="path4240"
     inkscape:connector-curvature="0" />
</svg>
